<svg width="45" height="44" viewBox="0 0 45 44" fill="none" xmlns="http://www.w3.org/2000/svg">
<path d="M22.4989 5.99122e-07C11.4648 -0.00142083 2.05885 8.02401 0.292223 18.9473C-1.4744 29.8705 4.91999 40.4662 15.3888 43.9626C16.5163 44.1662 16.9199 43.4719 16.9199 42.8748C16.9199 42.3388 16.9019 40.9186 16.8951 39.0301C10.6374 40.3871 9.31596 36.0042 9.31596 36.0042C8.904 34.6403 8.01836 33.4697 6.81964 32.7045C4.79011 31.3046 6.97523 31.3363 6.97523 31.3363C8.41998 31.535 9.69153 32.3935 10.4187 33.6612C11.0341 34.7835 12.0711 35.6128 13.299 35.9649C14.527 36.3169 15.8443 36.1625 16.9583 35.536C17.0629 34.3917 17.5706 33.3221 18.3902 32.5191C13.3976 31.9514 8.14785 30.0155 8.14785 21.3696C8.12014 19.1333 8.94816 16.9715 10.4615 15.3289C9.77677 13.3824 9.85741 11.2474 10.687 9.35837C10.687 9.35837 12.5745 8.75001 16.8703 11.6674C20.5547 10.6543 24.443 10.6543 28.1274 11.6674C32.4255 8.74775 34.3107 9.35837 34.3107 9.35837C35.1442 11.2465 35.2249 13.383 34.5362 15.3289C36.0551 16.9713 36.8824 19.1388 36.8454 21.3786C36.8454 30.0472 31.5912 31.9514 26.5805 32.51C27.6614 33.6183 28.2157 35.1388 28.1026 36.6849C28.1026 39.7018 28.0756 42.1353 28.0756 42.8748C28.0756 43.4787 28.477 44.1797 29.6248 43.9581C40.0892 40.4557 46.4767 29.8594 44.7064 18.9391C42.9362 8.01874 33.5306 -0.00253109 22.4989 5.99122e-07Z" fill="#410FD3"/>
</svg>
