<svg width="56" height="69" viewBox="0 0 56 69" fill="none" xmlns="http://www.w3.org/2000/svg">
<path d="M51.9427 26.4669L28.7103 3.0846C28.1151 2.48559 27.1455 2.48095 26.5446 3.07424L3.08806 26.2332C2.48715 26.8265 2.48249 27.793 3.07766 28.392L26.3101 51.7743C26.9053 52.3733 27.8749 52.378 28.4758 51.7847L51.9323 28.6258C52.5332 28.0325 52.5379 27.0659 51.9427 26.4669Z" stroke="#410FD3" stroke-width="5"/>
<path d="M52.3338 40.0829L29.1014 16.7006C28.5062 16.1016 27.5366 16.0969 26.9357 16.6902L3.47918 39.8491C2.87827 40.4424 2.87362 41.409 3.46879 42.008L26.7012 65.3903C27.2964 65.9893 28.266 65.9939 28.8669 65.4007L52.3234 42.2417C52.9243 41.6484 52.929 40.6819 52.3338 40.0829Z" stroke="#410FD3" stroke-width="5"/>
</svg>
