<svg width="128" height="128" viewBox="0 0 128 128" fill="none" xmlns="http://www.w3.org/2000/svg">
<g clip-path="url(#clip0)">
<path d="M2 5V130H127V5H2ZM68.119 111.513C66.274 115.262 62.752 117.725 58.671 118.914C52.4 120.354 46.402 119.533 41.94 116.855C38.954 115.023 36.622 112.203 35.039 108.954L44.559 103.124C44.642 103.159 44.892 103.611 45.226 104.195C46.44 106.229 47.487 107.669 49.545 108.68C51.567 109.37 56.006 109.811 57.72 106.253C58.767 104.443 58.434 98.625 58.434 92.188C58.433 82.073 58.48 72 58.48 62H70.189C70.189 73 70.249 83.418 70.189 94.152C70.214 100.732 70.785 106.598 68.119 111.513ZM116.693 108.205C112.623 122.127 89.931 122.579 80.863 113.381C78.947 111.216 77.746 110.085 76.603 107.586C81.422 104.814 81.422 104.814 86.111 102.101C88.658 106.016 91.013 108.169 95.25 109.05C100.998 109.752 106.781 107.777 105.484 101.672C104.151 96.686 93.714 95.473 86.611 90.141C79.4 85.298 77.71 73.53 83.636 66.806C85.611 64.319 88.979 62.463 92.513 61.571L96.201 61.094C103.282 60.951 107.708 62.821 110.957 66.449C111.861 67.365 112.599 68.353 113.979 70.494C110.207 72.898 110.219 72.875 104.816 76.373C103.662 73.887 101.747 72.327 99.723 71.649C96.581 70.697 92.619 71.732 91.797 75.052C91.512 76.075 91.571 77.027 92.024 78.717C93.297 81.62 97.569 82.882 101.401 84.643C112.432 89.117 116.157 93.914 117.073 99.624C117.955 104.54 116.86 107.729 116.693 108.205Z" fill="#F0DB4F"/>
</g>
<defs>
<clipPath id="clip0">
<rect width="128" height="128" fill="white"/>
</clipPath>
</defs>
</svg>
