<svg width="45" height="42" viewBox="0 0 45 42" fill="none" xmlns="http://www.w3.org/2000/svg">
<path d="M24.537 39.48H16.3888V14.84H24.537V18.9467C26.2738 16.7193 28.9077 15.3915 31.7175 15.3267C36.7705 15.3549 40.8479 19.4998 40.8333 24.5934V39.48H32.6851V25.62C32.3592 23.3257 30.4072 21.6234 28.1079 21.6283C27.1021 21.6604 26.1528 22.1042 25.479 22.8575C24.8051 23.6108 24.4649 24.6083 24.537 25.62V39.48ZM12.3148 39.48H4.16663V14.84H12.3148V39.48ZM8.24069 10.7334C5.99065 10.7334 4.16663 8.89474 4.16663 6.62669C4.16663 4.35864 5.99065 2.52002 8.24069 2.52002C10.4907 2.52002 12.3148 4.35864 12.3148 6.62669C12.3148 7.71584 11.8855 8.76039 11.1215 9.53054C10.3575 10.3007 9.3212 10.7334 8.24069 10.7334Z" fill="#410FD3"/>
<rect x="1" y="1" width="43" height="40" rx="4" stroke="#410FD3" stroke-width="2"/>
</svg>
