<svg width="340" height="69" viewBox="0 0 340 69" fill="none" xmlns="http://www.w3.org/2000/svg">
<path d="M51.9427 26.4669L28.7103 3.0846C28.1151 2.48559 27.1455 2.48095 26.5446 3.07424L3.08806 26.2332C2.48715 26.8265 2.48249 27.793 3.07766 28.392L26.3101 51.7743C26.9053 52.3733 27.8749 52.378 28.4758 51.7847L51.9323 28.6258C52.5332 28.0325 52.5379 27.0659 51.9427 26.4669Z" stroke="#410FD3" stroke-width="5"/>
<path d="M52.3337 40.0829L29.1013 16.7006C28.5061 16.1016 27.5365 16.0969 26.9356 16.6902L3.47906 39.8491C2.87815 40.4424 2.87349 41.409 3.46866 42.008L26.7011 65.3903C27.2963 65.9893 28.2659 65.9939 28.8668 65.4007L52.3233 42.2417C52.9242 41.6484 52.9289 40.6819 52.3337 40.0829Z" stroke="#410FD3" stroke-width="5"/>
<path d="M97.3803 30.7412C97.4083 31.0473 97.4223 31.3395 97.4223 31.6177C97.4503 31.8959 97.4643 32.1742 97.4643 32.4524C97.4643 32.842 97.4503 33.2176 97.4223 33.5793C97.3943 33.941 97.3523 34.3027 97.2962 34.6644C97.0441 36.5008 96.4699 38.2259 95.5734 39.8397C94.705 41.4257 93.5985 42.803 92.2539 43.9716C90.9373 45.1402 89.4245 46.0584 87.7157 46.7262C86.0069 47.394 84.1861 47.7279 82.2532 47.7279C80.1522 47.7279 78.1632 47.3244 76.2864 46.5175C74.4375 45.7106 72.8267 44.6255 71.4541 43.2621C70.0814 41.8709 68.9889 40.2571 68.1766 38.4207C67.3922 36.5565 67 34.5671 67 32.4524C67 30.3378 67.3922 28.3623 68.1766 26.5259C68.9889 24.6617 70.0814 23.0479 71.4541 21.6845C72.8267 20.2933 74.4375 19.1942 76.2864 18.3873C78.1632 17.5804 80.1522 17.177 82.2532 17.177C83.8499 17.177 85.3626 17.4135 86.7913 17.8865C88.248 18.3317 89.5786 18.9716 90.7832 19.8063C91.9877 20.6411 93.0522 21.6427 93.9767 22.8114C94.9291 23.9521 95.6995 25.2042 96.2878 26.5676H91.1193C90.1949 25.0095 88.9483 23.7574 87.3796 22.8114C85.8389 21.8653 84.1301 21.3923 82.2532 21.3923C80.7965 21.3923 79.4238 21.6845 78.1352 22.2688C76.8466 22.8531 75.7261 23.6461 74.7737 24.6477C73.8212 25.6494 73.0649 26.818 72.5046 28.1536C71.9443 29.4891 71.6642 30.9221 71.6642 32.4524C71.6642 33.9828 71.9443 35.4157 72.5046 36.7513C73.0649 38.0868 73.8212 39.2554 74.7737 40.2571C75.7261 41.2588 76.8466 42.0518 78.1352 42.6361C79.4238 43.2204 80.7965 43.5125 82.2532 43.5125C83.5138 43.5125 84.7183 43.2899 85.8669 42.8447C87.0154 42.3996 88.0379 41.7874 88.9343 41.0083C89.8587 40.2014 90.6291 39.2554 91.2454 38.1703C91.8897 37.0851 92.3379 35.9165 92.59 34.6644H81.833V30.7412H97.3803Z" fill="white"/>
<path d="M109.432 25.7329C110.973 25.7329 112.415 26.025 113.76 26.6093C115.133 27.1937 116.323 27.9866 117.332 28.9883C118.368 29.99 119.181 31.1725 119.769 32.5359C120.357 33.8993 120.651 35.3461 120.651 36.8765V47.6861H116.281V45.6411C115.329 46.3645 114.278 46.9349 113.13 47.3523C111.981 47.7696 110.749 47.9783 109.432 47.9783C107.891 47.9783 106.435 47.6861 105.062 47.1018C103.717 46.5175 102.541 45.7245 101.532 44.7229C100.524 43.7212 99.7255 42.5526 99.1372 41.217C98.549 39.8536 98.2548 38.4068 98.2548 36.8765C98.2548 35.3461 98.549 33.8993 99.1372 32.5359C99.7255 31.1725 100.524 29.99 101.532 28.9883C102.541 27.9866 103.717 27.1937 105.062 26.6093C106.435 26.025 107.891 25.7329 109.432 25.7329ZM109.432 43.6377C110.385 43.6377 111.267 43.4569 112.079 43.0952C112.92 42.7334 113.648 42.2465 114.264 41.6344C114.881 41.0223 115.371 40.3127 115.735 39.5058C116.099 38.6711 116.281 37.7947 116.281 36.8765C116.281 35.9304 116.099 35.054 115.735 34.2471C115.371 33.4124 114.881 32.6889 114.264 32.0768C113.648 31.4647 112.92 30.9777 112.079 30.616C111.267 30.2543 110.385 30.0735 109.432 30.0735C108.48 30.0735 107.583 30.2543 106.743 30.616C105.93 30.9777 105.216 31.4647 104.6 32.0768C103.984 32.6889 103.493 33.4124 103.129 34.2471C102.765 35.054 102.583 35.9304 102.583 36.8765C102.583 37.7947 102.765 38.6711 103.129 39.5058C103.493 40.3127 103.984 41.0223 104.6 41.6344C105.216 42.2465 105.93 42.7334 106.743 43.0952C107.583 43.4569 108.48 43.6377 109.432 43.6377Z" fill="white"/>
<path d="M133.121 25.7329C134.662 25.7329 136.104 26.025 137.449 26.6093C138.794 27.1658 139.97 27.9449 140.979 28.9466C141.987 29.9482 142.772 31.1169 143.332 32.4524C143.92 33.788 144.214 35.2209 144.214 36.7513C144.214 38.2816 143.92 39.7145 143.332 41.0501C142.772 42.3856 141.987 43.5543 140.979 44.5559C139.97 45.5576 138.794 46.3506 137.449 46.9349C136.104 47.4914 134.662 47.7696 133.121 47.7696C131.58 47.7696 130.138 47.4914 128.793 46.9349C127.448 46.3506 126.272 45.5576 125.263 44.5559C124.255 43.5543 123.456 42.3856 122.868 41.0501C122.308 39.7145 122.028 38.2816 122.028 36.7513V11H126.314V28.0284C127.266 27.305 128.317 26.7485 129.465 26.3589C130.614 25.9416 131.832 25.7329 133.121 25.7329ZM133.121 43.4708C134.045 43.4708 134.914 43.3038 135.726 42.9699C136.567 42.6082 137.295 42.1213 137.911 41.5092C138.528 40.8971 139.004 40.1875 139.34 39.3806C139.704 38.5459 139.886 37.6695 139.886 36.7513C139.886 35.8331 139.704 34.9705 139.34 34.1636C139.004 33.3289 138.528 32.6055 137.911 31.9933C137.295 31.3812 136.567 30.9082 135.726 30.5743C134.914 30.2126 134.045 30.0317 133.121 30.0317C132.197 30.0317 131.314 30.2126 130.474 30.5743C129.661 30.9082 128.947 31.3812 128.331 31.9933C127.714 32.6055 127.224 33.315 126.86 34.1219C126.496 34.9288 126.314 35.7913 126.314 36.7095V36.7513C126.314 37.6695 126.496 38.5459 126.86 39.3806C127.224 40.1875 127.714 40.8971 128.331 41.5092C128.947 42.1213 129.661 42.6082 130.474 42.9699C131.314 43.3038 132.197 43.4708 133.121 43.4708Z" fill="white"/>
<path d="M160.457 27.3606C161.409 27.9727 162.222 28.7379 162.894 29.6561L160.457 31.576L159.532 32.3272C159.056 31.6316 158.426 31.0751 157.642 30.6578C156.885 30.2404 156.059 30.0317 155.162 30.0317C154.434 30.0317 153.748 30.1708 153.103 30.4491C152.459 30.7273 151.899 31.1029 151.423 31.576C150.946 32.049 150.568 32.6055 150.288 33.2454C150.008 33.8854 149.868 34.5671 149.868 35.2905V47.6861H145.582V25.7746H149.868V27.3606C150.624 26.8598 151.451 26.4702 152.347 26.192C153.243 25.9137 154.182 25.7746 155.162 25.7746C156.143 25.7746 157.081 25.9137 157.978 26.192C158.874 26.4702 159.7 26.8598 160.457 27.3606Z" fill="white"/>
<path d="M162.586 25.6912H166.872V47.7279H162.586V25.6912ZM162.586 23.4374V19.1803H166.872V23.4374H162.586Z" fill="white"/>
<path d="M173.385 38.1703C173.553 38.9215 173.833 39.6311 174.225 40.2988C174.645 40.9388 175.15 41.4953 175.738 41.9683C176.326 42.4413 176.985 42.8169 177.713 43.0952C178.441 43.3456 179.212 43.4708 180.024 43.4708C181.004 43.4708 181.915 43.276 182.755 42.8865C183.624 42.4969 184.38 41.9544 185.024 41.2588H190.109C189.941 41.6761 189.73 42.0796 189.478 42.4691C189.254 42.8308 189.002 43.1925 188.722 43.5543C187.714 44.8342 186.453 45.8637 184.94 46.6427C183.428 47.394 181.789 47.7696 180.024 47.7696C178.483 47.7696 177.041 47.4914 175.696 46.9349C174.351 46.3506 173.175 45.5576 172.166 44.5559C171.158 43.5543 170.359 42.3856 169.771 41.0501C169.211 39.7145 168.931 38.2816 168.931 36.7513C168.931 35.2209 169.211 33.788 169.771 32.4524C170.359 31.1169 171.158 29.9482 172.166 28.9466C173.175 27.9449 174.351 27.1658 175.696 26.6093C177.041 26.025 178.483 25.7329 180.024 25.7329C181.789 25.7329 183.428 26.1224 184.94 26.9015C186.453 27.6528 187.714 28.6822 188.722 29.99C189.646 31.103 190.319 32.4107 190.739 33.9132C190.991 34.8036 191.117 35.7496 191.117 36.7513C191.117 37.2521 191.075 37.7251 190.991 38.1703H173.385ZM180.024 30.0317C178.651 30.0317 177.419 30.3934 176.326 31.1169C175.262 31.8125 174.449 32.7446 173.889 33.9132H186.159C186.019 33.6906 185.879 33.468 185.739 33.2454C185.627 33.0228 185.501 32.8141 185.36 32.6194C184.716 31.8125 183.932 31.1864 183.007 30.7412C182.083 30.2682 181.088 30.0317 180.024 30.0317Z" fill="white"/>
<path d="M193.157 47.5192V11.0835H197.443V47.5192H193.157Z" fill="white"/>
<path d="M216.695 47.6861L229.259 17.0935L241.823 47.6861H237.243L236.319 45.2654H222.242L221.276 47.6861H216.695ZM223.755 41.384H234.764L229.259 27.3606L223.755 41.384Z" fill="white"/>
<path d="M259.55 27.3606C260.502 27.9727 261.314 28.7379 261.987 29.6561L259.55 31.576L258.625 32.3272C258.149 31.6316 257.519 31.0751 256.734 30.6578C255.978 30.2404 255.152 30.0317 254.255 30.0317C253.527 30.0317 252.84 30.1708 252.196 30.4491C251.552 30.7273 250.992 31.1029 250.515 31.576C250.039 32.049 249.661 32.6055 249.381 33.2454C249.101 33.8854 248.961 34.5671 248.961 35.2905V47.6861H244.675V25.7746H248.961V27.3606C249.717 26.8598 250.543 26.4702 251.44 26.192C252.336 25.9137 253.275 25.7746 254.255 25.7746C255.236 25.7746 256.174 25.9137 257.07 26.192C257.967 26.4702 258.793 26.8598 259.55 27.3606Z" fill="white"/>
<path d="M273.066 25.7329C274.607 25.7329 276.05 26.025 277.394 26.6093C278.767 27.1937 279.957 27.9866 280.966 28.9883C282.002 29.99 282.815 31.1725 283.403 32.5359C283.991 33.8993 284.285 35.3461 284.285 36.8765V47.6861H279.915V45.6411C278.963 46.3645 277.912 46.9349 276.764 47.3523C275.615 47.7696 274.383 47.9783 273.066 47.9783C271.525 47.9783 270.069 47.6861 268.696 47.1018C267.351 46.5175 266.175 45.7245 265.166 44.7229C264.158 43.7212 263.36 42.5526 262.771 41.217C262.183 39.8536 261.889 38.4068 261.889 36.8765C261.889 35.3461 262.183 33.8993 262.771 32.5359C263.36 31.1725 264.158 29.99 265.166 28.9883C266.175 27.9866 267.351 27.1937 268.696 26.6093C270.069 26.025 271.525 25.7329 273.066 25.7329ZM273.066 43.6377C274.019 43.6377 274.901 43.4569 275.713 43.0952C276.554 42.7334 277.282 42.2465 277.898 41.6344C278.515 41.0223 279.005 40.3127 279.369 39.5058C279.733 38.6711 279.915 37.7947 279.915 36.8765C279.915 35.9304 279.733 35.054 279.369 34.2471C279.005 33.4124 278.515 32.6889 277.898 32.0768C277.282 31.4647 276.554 30.9777 275.713 30.616C274.901 30.2543 274.019 30.0735 273.066 30.0735C272.114 30.0735 271.217 30.2543 270.377 30.616C269.565 30.9777 268.85 31.4647 268.234 32.0768C267.618 32.6889 267.127 33.4124 266.763 34.2471C266.399 35.054 266.217 35.9304 266.217 36.8765C266.217 37.7947 266.399 38.6711 266.763 39.5058C267.127 40.3127 267.618 41.0223 268.234 41.6344C268.85 42.2465 269.565 42.7334 270.377 43.0952C271.217 43.4569 272.114 43.6377 273.066 43.6377Z" fill="white"/>
<path d="M306.21 25.3573V47.7279H303.184L302.638 44.7646H302.47C301.741 45.9332 300.733 46.7958 299.444 47.3523C298.156 47.8809 296.783 48.1452 295.326 48.1452C292.609 48.1452 290.564 47.5053 289.192 46.2254C287.819 44.9176 287.133 42.8447 287.133 40.0067V25.3573H290.872V39.7563C290.872 43.3178 292.539 45.0985 295.873 45.0985C298.366 45.0985 300.089 44.4029 301.041 43.0117C302.022 41.6205 302.512 39.6171 302.512 37.0017V25.3573H306.21ZM302.722 15.7579V16.1753C302.386 16.6761 301.868 17.33 301.167 18.1369C300.467 18.916 299.711 19.709 298.898 20.5159C298.114 21.2949 297.385 21.9349 296.713 22.4357H294.276V21.9349C294.696 21.4062 295.144 20.7802 295.621 20.0568C296.125 19.3333 296.615 18.596 297.091 17.8447C297.568 17.0657 297.96 16.3701 298.268 15.7579H302.722Z" fill="white"/>
<path d="M309.998 25.7329H314.284V61H309.998V25.7329ZM309.998 23.4374V19.1803H314.284V23.4374H309.998Z" fill="white"/>
<path d="M328.907 25.6912C330.448 25.6912 331.89 25.9833 333.235 26.5676C334.579 27.1241 335.756 27.9032 336.764 28.9048C337.773 29.9065 338.557 31.0751 339.118 32.4107C339.706 33.7462 340 35.1792 340 36.7095C340 38.2398 339.706 39.6728 339.118 41.0083C338.557 42.3439 337.773 43.5125 336.764 44.5142C335.756 45.5159 334.579 46.3088 333.235 46.8932C331.89 47.4496 330.448 47.7279 328.907 47.7279C327.366 47.7279 325.923 47.4496 324.579 46.8932C323.234 46.3088 322.058 45.5159 321.049 44.5142C320.041 43.5125 319.242 42.3439 318.654 41.0083C318.094 39.6728 317.814 38.2398 317.814 36.7095C317.814 35.1792 318.094 33.7462 318.654 32.4107C319.242 31.0751 320.041 29.9065 321.049 28.9048C322.058 27.9032 323.234 27.1241 324.579 26.5676C325.923 25.9833 327.366 25.6912 328.907 25.6912ZM328.907 43.4291C329.831 43.4291 330.7 43.2621 331.512 42.9282C332.352 42.5665 333.081 42.0796 333.697 41.4674C334.313 40.8553 334.79 40.1458 335.126 39.3389C335.49 38.5042 335.672 37.6277 335.672 36.7095C335.672 35.7913 335.49 34.9288 335.126 34.1219C334.79 33.2871 334.313 32.5637 333.697 31.9516C333.081 31.3395 332.352 30.8664 331.512 30.5326C330.7 30.1708 329.831 29.99 328.907 29.99C327.982 29.99 327.1 30.1708 326.26 30.5326C325.447 30.8664 324.733 31.3395 324.117 31.9516C323.5 32.5637 323.01 33.2871 322.646 34.1219C322.282 34.9288 322.1 35.7913 322.1 36.7095C322.1 37.6277 322.282 38.5042 322.646 39.3389C323.01 40.1458 323.5 40.8553 324.117 41.4674C324.733 42.0796 325.447 42.5665 326.26 42.9282C327.1 43.2621 327.982 43.4291 328.907 43.4291Z" fill="white"/>
</svg>
