<svg width="44" height="44" viewBox="0 0 44 44" fill="none" xmlns="http://www.w3.org/2000/svg">
<path d="M41.2431 44C17.7811 44.0332 -0.0250735 26.0136 2.65029e-05 2.7569C2.65029e-05 1.23812 1.23124 0 2.75003 0H10.0083C11.3711 0 12.5288 1.00136 12.7289 2.3494C13.2086 5.58029 14.1492 8.72566 15.5223 11.6894L15.8049 12.2994C16.1979 13.1475 15.9315 14.1552 15.1709 14.6984C12.9231 16.3036 12.064 19.5348 13.8152 22.056C16.0126 25.2198 18.7826 27.9892 21.9457 30.1857C24.4668 31.9363 27.6975 31.0774 29.3026 28.83C29.8462 28.069 30.8545 27.8025 31.7031 28.1956L32.3102 28.4769C35.2742 29.8499 38.4198 30.7906 41.651 31.2701C42.9991 31.4702 44 32.6279 44 33.9907V41.2499C44 42.7687 42.7658 43.9999 41.247 43.9999L41.2431 44Z" fill="#410FD3"/>
</svg>
