<svg width="597" height="564" viewBox="0 0 597 564" fill="none" xmlns="http://www.w3.org/2000/svg">
<path d="M186.292 456.777C292.561 508.643 290.957 469.02 449.486 440.163C683.339 380.264 583.252 163.754 525.248 103.506C467.244 43.2582 240.158 -47.3337 157.576 29.5435C72.2948 108.934 -69.0183 173.898 39.1495 295.444C148.793 418.648 53.4562 391.946 186.292 456.777Z" fill="url(#paint0_linear)"/>
<path d="M532.788 291.423L532.787 276.615L145.606 341.376L145.607 355.374L282.217 432.59L532.788 291.423Z" fill="#35157D"/>
<path d="M532.786 276.825L398.401 200.206L145.605 340.777L283.75 416.383L532.786 276.825Z" fill="#3F13A4"/>
<path d="M289.052 344.998L275.041 334.489C278.194 328.885 285.696 325.732 289.052 324.857C307.88 336.678 307.442 344.998 303.501 347.625C300.349 349.726 292.555 346.749 289.052 344.998Z" fill="black"/>
<path d="M310.41 240.129V227.359C305.147 231.008 297.566 233.136 294.434 233.744V259.284C301.952 261.716 319.807 266.581 331.084 266.581C342.362 266.581 353.952 273.27 358.337 276.615C387.47 295.77 390.289 278.439 379.012 266.581C369.991 257.095 329.518 244.994 310.41 240.129Z" fill="#FFA9A8"/>
<path d="M213.615 269.317L216.434 241.041C228.463 243.96 240.241 243.473 244.627 242.865C240.116 261.838 242.747 268.405 244.627 269.317L288.795 306.715C298.193 314.62 315.484 332.072 309.47 338.64C303.456 345.207 293.181 334.687 288.795 328.606C279.022 325.687 271.566 318.269 269.06 314.924C263.735 311.58 249.137 302.519 233.349 293.033C217.561 283.547 213.615 273.27 213.615 269.317Z" fill="#FFA9A8"/>
<path d="M311.958 228.271C313.461 196.164 300.054 183.881 294.102 181.752C303.124 189.049 301.012 201.515 297.253 209.116C293.494 225.17 292.536 236.176 294.102 237.393C302.372 236.663 310.078 231.008 311.958 228.271Z" fill="#384951"/>
<path d="M261.03 179.93L240.014 180.806C252.043 192.481 248.5 233.5 238 267.5L263 284.5C290.817 283.041 294.434 274.79 296.313 269.318C293.306 243.048 304.771 210.029 302.892 192.698C299.133 178.833 288.795 180.232 284.096 182.664C286.916 185.401 285.349 182.613 275.479 182.12C266.722 181.682 268.474 179.93 261.03 179.93Z" fill="#FAFAFA"/>
<path d="M242.747 180.84C225.456 179.38 217.374 220.974 215.494 241.953C226.019 249.25 239.928 247.426 245.566 245.602C251.831 224.623 260.039 182.299 242.747 180.84Z" fill="#384951"/>
<rect x="460.292" y="292.652" width="7.82845" height="151.847" rx="3.91423" transform="rotate(59.304 460.292 292.652)" fill="#616262"/>
<path d="M253.745 179.888C255.923 174.269 255.688 169.432 254.022 167.024C253.972 166.952 253.929 166.892 253.892 166.841C253.676 166.619 253.658 166.524 253.892 166.841C255.067 168.053 262.104 173.034 266.01 135.288C276.201 138.72 299.14 144.017 309.367 137.756C312.329 157.042 310.872 193.342 281.344 184.254C279.235 183.567 280.944 182.447 275.921 187.212C267.829 194.887 262.125 187.615 253.745 179.888Z" fill="#F9AAA9"/>
<path d="M282.402 184.266C272.891 183.166 266.281 174.794 264.558 171.124C264.453 180.683 272.167 184.817 277.09 186.199L278.17 184.219L282.402 184.266Z" fill="#F49696"/>
<path d="M287.783 176.024C284.983 174.223 282.671 170.806 281.865 169.322C281.375 171.107 280.956 175.064 283.195 176.606C285.434 178.147 287.187 176.86 287.783 176.024Z" fill="#C4706F"/>
<path d="M293.774 165.469C295.414 165.487 292.451 161.471 290.765 159.461L290.016 165.428L293.774 165.469Z" fill="#E99392"/>
<path d="M290.146 153.576C286.805 149.556 270.444 149.044 262.682 149.291L262.66 151.282L273.24 151.399C272.324 157.762 275.599 161.383 277.352 162.398C286.61 167.28 290.422 160.55 291.172 156.575L296.462 156.633C295.968 159.171 298.321 162.361 299.559 163.638C309.026 168.722 316.575 155.858 309.191 153.786C303.283 152.127 298.265 153.002 296.494 153.646L290.146 153.576Z" fill="black"/>
<ellipse rx="4.22302" ry="0.998269" transform="matrix(0.980701 0.195512 -0.218313 0.975879 283.971 149.193)" fill="#8C5557"/>
<ellipse rx="4.23138" ry="0.996054" transform="matrix(0.998892 -0.047072 0.0545322 0.998512 302.931 150.876)" fill="#8C5557"/>
<path d="M310.098 138.894C301.248 145.273 277.74 140.325 267.092 137.054C268.345 143.041 260.533 163.415 256.471 172.854C255.016 175.532 255.445 178.186 250.301 161.722C245.157 145.258 253.298 130.291 262.566 124.476C271.018 120.429 270.32 121.625 281.214 123.01C293.587 124.582 313.339 121.977 313.415 123.037C315.997 125.665 318.947 132.515 310.098 138.894Z" fill="black"/>
<path d="M406.634 262.809L374.137 247.798L280.296 297.089L314.064 311.659L406.634 262.809Z" fill="#595959"/>
<path d="M326.079 239.634C326.271 237.661 327.425 235.91 329.164 234.956L453.032 166.965C457.19 164.682 462.228 167.9 461.905 172.632L455.351 268.852C455.215 270.852 454.088 272.652 452.349 273.65L325.19 346.543C320.963 348.966 315.762 345.606 316.235 340.756L326.079 239.634Z" fill="#737373"/>
<path d="M335.687 243.924C335.747 243.262 336.132 242.674 336.714 242.353L458.514 175.303C459.898 174.541 461.577 175.608 461.475 177.185L455.204 273.699C455.16 274.379 454.772 274.99 454.175 275.319L329.687 344.113C328.283 344.889 326.583 343.778 326.728 342.181L335.687 243.924Z" fill="#595959"/>
<ellipse rx="6.57166" ry="8.21803" transform="matrix(0.983414 0.181377 -0.192128 0.98137 400.211 247.561)" fill="#797EF6"/>
<path d="M394.191 291.598C394.104 290.808 394.494 290.041 395.184 289.645L412.487 279.721C413.62 279.072 415.062 279.665 415.41 280.923L424.673 314.434C424.904 315.27 424.57 316.16 423.845 316.637L400.113 332.268C399.489 332.679 398.651 332.285 398.569 331.541L394.191 291.598Z" fill="#8A8686"/>
<path d="M396.942 291.858C396.897 291.464 397.089 291.08 397.432 290.88L414.528 280.924C415.099 280.592 415.83 280.894 415.998 281.533L424.882 315.161C424.989 315.567 424.832 315.996 424.488 316.237L402.942 331.294C402.321 331.728 401.462 331.341 401.376 330.588L396.942 291.858Z" fill="#595959"/>
<ellipse cx="259.717" cy="161.541" rx="9.19474" ry="8.31905" fill="#797EF6"/>
<ellipse cx="259.717" cy="161.979" rx="4.81629" ry="4.37845" fill="#C4C4C4"/>
<path d="M280.733 123.01C259.016 130.366 256.506 147.092 257.965 154.535H261.468C255.864 140.174 274.312 126.951 284.236 122.135L280.733 123.01Z" fill="#797EF6"/>
<path d="M302 347C301.55 344.424 299.12 338.818 293 337" stroke="#410FD3" stroke-width="2"/>
<path fill-rule="evenodd" clip-rule="evenodd" d="M233.787 315.348H211.992V344.325V344.573H211.997C212.183 348.699 216.988 352.003 222.889 352.003C228.79 352.003 233.596 348.699 233.781 344.573H233.787V344.325V315.348Z" fill="white"/>
<path fill-rule="evenodd" clip-rule="evenodd" d="M233.787 311.88H211.992V340.858V341.105H211.997C212.183 345.231 216.988 348.535 222.889 348.535C228.79 348.535 233.596 345.231 233.781 341.105H233.787V340.858V311.88Z" fill="#410FD3"/>
<ellipse cx="222.889" cy="310.642" rx="10.8975" ry="7.67776" fill="white"/>
<circle cx="226.604" cy="312.624" r="2.72437" fill="black"/>
<ellipse cx="272.684" cy="373.672" rx="25.1248" ry="18.4826" fill="#7995F6"/>
<ellipse cx="272.107" cy="371.361" rx="25.1248" ry="18.4826" fill="#797EF6"/>
<path d="M257.613 368.218C253.399 370.13 254.062 376.312 258.616 377.567L282.615 384.179C285.991 385.11 289.167 382.452 288.797 379.004L287.007 362.315C286.637 358.868 282.946 356.724 279.821 358.142L257.613 368.218Z" fill="#FEC2AF"/>
<path d="M257.613 366.448C253.399 368.36 254.062 374.542 258.616 375.796L282.615 382.409C285.991 383.339 289.167 380.681 288.797 377.233L287.007 360.545C286.637 357.097 282.946 354.954 279.821 356.371L257.613 366.448Z" fill="#FED3C4"/>
<path d="M285.574 383.118C286.636 377.097 284.245 361.868 282.917 355.006C287.698 353.589 289.337 356.629 289.558 358.326C290.975 359.743 290.148 364.229 289.558 366.295C291.329 368.774 291.034 373.378 290.665 375.37C291.698 377.362 293.144 381.701 290.665 383.118C288.185 384.534 286.238 383.708 285.574 383.118Z" fill="#EA9D83"/>
<ellipse cx="273.178" cy="364.524" rx="3.54164" ry="2.65623" fill="#AF686A"/>
<ellipse cx="276.719" cy="372.935" rx="3.54164" ry="2.65623" fill="#AF686A"/>
<ellipse cx="261.667" cy="370.279" rx="3.54164" ry="2.65623" fill="#AF686A"/>
<path d="M143.625 225.156L151.604 228.298C153.133 228.9 154.138 230.376 154.138 232.02V263.947C154.138 266.156 152.347 267.947 150.138 267.947H77.7909C76.6297 267.947 75.5257 267.443 74.7659 266.564L68.9751 259.871C68.3461 259.145 68 258.215 68 257.254V228.878C68 226.669 69.7909 224.878 72 224.878H142.159C142.661 224.878 143.158 224.973 143.625 225.156Z" fill="#050505"/>
<rect x="74.626" y="229.334" width="79.5122" height="38.6137" rx="3" fill="#282828"/>
<path d="M98.4632 244.307V242.021H100.389V255.197H98.4632V252.839V251.111H93.3332V252.839V255.197H91.4072V242.021H93.3332V244.307V247.691V249.383V249.419H98.4632V249.383V247.691V244.307ZM103.237 243.857V242.021H111.661V243.857H108.403V255.197H106.495V243.857H103.237ZM121.273 251.111L125.611 242.021L128.059 255.233H126.097L124.819 247.907L121.273 255.467L117.745 247.907L116.467 255.233H114.505L116.953 242.021L121.273 251.111ZM132.831 242.021V253.343H138.213V255.233H130.905V242.021H132.831Z" fill="white"/>
<path d="M293.368 62.2781L301.346 65.4194C302.876 66.0215 303.881 67.4978 303.881 69.1414V101.069C303.881 103.278 302.09 105.069 299.881 105.069H227.534C226.373 105.069 225.269 104.564 224.509 103.686L218.718 96.9933C218.089 96.2664 217.743 95.3373 217.743 94.3761V66C217.743 63.7909 219.534 62 221.743 62H291.902C292.404 62 292.901 62.0943 293.368 62.2781Z" fill="#050505"/>
<rect x="224.369" y="66.4556" width="79.5122" height="38.6137" rx="3" fill="#282828"/>
<path d="M240.792 87.4407L244.158 79.1607H246.156L240.792 92.4087L235.428 79.1607H237.426L240.792 87.4407ZM256.001 79.1427H257.891V87.9627C257.891 88.5747 257.771 89.1447 257.531 89.6727C257.303 90.2007 256.985 90.6627 256.577 91.0587C256.169 91.4427 255.695 91.7487 255.155 91.9767C254.615 92.2047 254.033 92.3187 253.409 92.3187C252.797 92.3187 252.221 92.2047 251.681 91.9767C251.153 91.7487 250.685 91.4427 250.277 91.0587C249.881 90.6627 249.569 90.2007 249.341 89.6727C249.113 89.1447 248.999 88.5747 248.999 87.9627V79.1427H250.889V87.9627C250.889 88.3107 250.955 88.6407 251.087 88.9527C251.219 89.2527 251.399 89.5227 251.627 89.7627C251.855 89.9907 252.125 90.1707 252.437 90.3027C252.749 90.4347 253.079 90.5007 253.427 90.5007C253.787 90.5007 254.123 90.4347 254.435 90.3027C254.747 90.1707 255.017 89.9907 255.245 89.7627C255.485 89.5227 255.671 89.2527 255.803 88.9527C255.935 88.6407 256.001 88.3107 256.001 87.9627V79.1427ZM262.649 87.2787V90.4107H268.517V92.3007H260.741V79.1607H268.391V80.9967H262.649V83.0847V84.1647V85.4787H267.815V87.2787H262.649ZM272.312 90.4287C272.576 90.4287 272.798 90.5247 272.978 90.7167C273.17 90.8967 273.266 91.1187 273.266 91.3827C273.266 91.6467 273.17 91.8747 272.978 92.0667C272.798 92.2467 272.576 92.3367 272.312 92.3367C272.048 92.3367 271.82 92.2467 271.628 92.0667C271.448 91.8747 271.358 91.6467 271.358 91.3827C271.358 91.1187 271.448 90.8967 271.628 90.7167C271.82 90.5247 272.048 90.4287 272.312 90.4287ZM280.406 79.1067H282.296V88.7727C282.296 89.2647 282.2 89.7267 282.008 90.1587C281.828 90.5907 281.576 90.9687 281.252 91.2927C280.94 91.6167 280.568 91.8747 280.136 92.0667C279.716 92.2467 279.26 92.3367 278.768 92.3367C278.228 92.3367 277.73 92.2347 277.274 92.0307C276.818 91.8267 276.428 91.5327 276.104 91.1487L277.58 89.9607C277.736 90.1287 277.91 90.2547 278.102 90.3387C278.306 90.4107 278.528 90.4467 278.768 90.4467C278.996 90.4467 279.206 90.4047 279.398 90.3207C279.602 90.2367 279.776 90.1227 279.92 89.9787C280.076 89.8227 280.196 89.6427 280.28 89.4387C280.364 89.2347 280.406 89.0187 280.406 88.7907V79.1067ZM292.375 85.7667C292.459 85.8267 292.537 85.8987 292.609 85.9827C292.681 86.0547 292.747 86.1267 292.807 86.1987C293.083 86.5467 293.299 86.9307 293.455 87.3507C293.611 87.7587 293.689 88.1907 293.689 88.6467C293.689 88.7547 293.683 88.8387 293.671 88.8987C293.635 89.5707 293.431 90.1767 293.059 90.7167C292.723 91.2207 292.291 91.6227 291.763 91.9227C291.235 92.2107 290.647 92.3547 289.999 92.3547H288.811C288.163 92.3547 287.575 92.2107 287.047 91.9227C286.519 91.6227 286.087 91.2207 285.751 90.7167C285.655 90.5727 285.559 90.4047 285.463 90.2127L287.137 88.9167C287.173 89.1447 287.245 89.3607 287.353 89.5647C287.473 89.7567 287.617 89.9307 287.785 90.0867C287.953 90.2307 288.145 90.3447 288.361 90.4287C288.577 90.5127 288.805 90.5547 289.045 90.5547H289.765C290.257 90.5547 290.683 90.3987 291.043 90.0867C291.403 89.7627 291.619 89.3667 291.691 88.8987C291.691 88.8507 291.691 88.8027 291.691 88.7547C291.703 88.7067 291.709 88.6587 291.709 88.6107C291.709 88.3467 291.661 88.1007 291.565 87.8727C291.469 87.6447 291.337 87.4467 291.169 87.2787C291.001 87.0987 290.803 86.9547 290.575 86.8467C290.347 86.7387 290.107 86.6787 289.855 86.6667H288.829H288.757C288.313 86.6547 287.893 86.5707 287.497 86.4147C287.113 86.2467 286.765 86.0247 286.453 85.7487C286.285 85.6287 286.141 85.4847 286.021 85.3167C285.745 84.9687 285.529 84.5907 285.373 84.1827C285.217 83.7627 285.139 83.3247 285.139 82.8687V82.6167C285.199 81.9327 285.409 81.3267 285.769 80.7987C286.105 80.2947 286.537 79.8987 287.065 79.6107C287.593 79.3107 288.181 79.1607 288.829 79.1607H289.999C290.647 79.1607 291.235 79.3107 291.763 79.6107C292.303 79.8987 292.741 80.2947 293.077 80.7987C293.113 80.8587 293.149 80.9247 293.185 80.9967C293.233 81.0687 293.275 81.1347 293.311 81.1947L291.673 82.4727C291.565 82.0407 291.337 81.6807 290.989 81.3927C290.641 81.1047 290.239 80.9607 289.783 80.9607H289.063C288.823 80.9607 288.589 81.0027 288.361 81.0867C288.145 81.1707 287.953 81.2907 287.785 81.4467C287.617 81.5907 287.473 81.7647 287.353 81.9687C287.245 82.1727 287.173 82.3887 287.137 82.6167C287.125 82.6647 287.119 82.7127 287.119 82.7607C287.119 82.8087 287.119 82.8567 287.119 82.9047C287.119 83.1687 287.167 83.4147 287.263 83.6427C287.359 83.8707 287.491 84.0747 287.659 84.2547C287.827 84.4227 288.025 84.5607 288.253 84.6687C288.481 84.7767 288.721 84.8367 288.973 84.8487H289.999H290.071C290.515 84.8607 290.929 84.9507 291.313 85.1187C291.709 85.2747 292.063 85.4907 292.375 85.7667Z" fill="white"/>
<path d="M191.788 139.339L199.766 142.48C201.296 143.082 202.301 144.558 202.301 146.202V178.13C202.301 180.339 200.51 182.13 198.301 182.13H125.954C124.793 182.13 123.689 181.625 122.929 180.747L117.138 174.054C116.509 173.327 116.163 172.398 116.163 171.437V143.061C116.163 140.851 117.954 139.061 120.163 139.061H190.322C190.824 139.061 191.321 139.155 191.788 139.339Z" fill="#050505"/>
<rect x="122.789" y="143.516" width="79.5122" height="38.6137" rx="3" fill="#282828"/>
<path d="M158.488 156.167H160.378V165.833C160.378 166.325 160.282 166.787 160.09 167.219C159.91 167.651 159.658 168.029 159.334 168.353C159.022 168.677 158.65 168.935 158.218 169.127C157.798 169.307 157.342 169.397 156.85 169.397C156.31 169.397 155.812 169.295 155.356 169.091C154.9 168.887 154.51 168.593 154.186 168.209L155.662 167.021C155.818 167.189 155.992 167.315 156.184 167.399C156.388 167.471 156.61 167.507 156.85 167.507C157.078 167.507 157.288 167.465 157.48 167.381C157.684 167.297 157.858 167.183 158.002 167.039C158.158 166.883 158.278 166.703 158.362 166.499C158.446 166.295 158.488 166.079 158.488 165.851V156.167ZM170.457 162.827C170.541 162.887 170.619 162.959 170.691 163.043C170.763 163.115 170.829 163.187 170.889 163.259C171.165 163.607 171.381 163.991 171.537 164.411C171.693 164.819 171.771 165.251 171.771 165.707C171.771 165.815 171.765 165.899 171.753 165.959C171.717 166.631 171.513 167.237 171.141 167.777C170.805 168.281 170.373 168.683 169.845 168.983C169.317 169.271 168.729 169.415 168.081 169.415H166.893C166.245 169.415 165.657 169.271 165.129 168.983C164.601 168.683 164.169 168.281 163.833 167.777C163.737 167.633 163.641 167.465 163.545 167.273L165.219 165.977C165.255 166.205 165.327 166.421 165.435 166.625C165.555 166.817 165.699 166.991 165.867 167.147C166.035 167.291 166.227 167.405 166.443 167.489C166.659 167.573 166.887 167.615 167.127 167.615H167.847C168.339 167.615 168.765 167.459 169.125 167.147C169.485 166.823 169.701 166.427 169.773 165.959C169.773 165.911 169.773 165.863 169.773 165.815C169.785 165.767 169.791 165.719 169.791 165.671C169.791 165.407 169.743 165.161 169.647 164.933C169.551 164.705 169.419 164.507 169.251 164.339C169.083 164.159 168.885 164.015 168.657 163.907C168.429 163.799 168.189 163.739 167.937 163.727H166.911H166.839C166.395 163.715 165.975 163.631 165.579 163.475C165.195 163.307 164.847 163.085 164.535 162.809C164.367 162.689 164.223 162.545 164.103 162.377C163.827 162.029 163.611 161.651 163.455 161.243C163.299 160.823 163.221 160.385 163.221 159.929V159.677C163.281 158.993 163.491 158.387 163.851 157.859C164.187 157.355 164.619 156.959 165.147 156.671C165.675 156.371 166.263 156.221 166.911 156.221H168.081C168.729 156.221 169.317 156.371 169.845 156.671C170.385 156.959 170.823 157.355 171.159 157.859C171.195 157.919 171.231 157.985 171.267 158.057C171.315 158.129 171.357 158.195 171.393 158.255L169.755 159.533C169.647 159.101 169.419 158.741 169.071 158.453C168.723 158.165 168.321 158.021 167.865 158.021H167.145C166.905 158.021 166.671 158.063 166.443 158.147C166.227 158.231 166.035 158.351 165.867 158.507C165.699 158.651 165.555 158.825 165.435 159.029C165.327 159.233 165.255 159.449 165.219 159.677C165.207 159.725 165.201 159.773 165.201 159.821C165.201 159.869 165.201 159.917 165.201 159.965C165.201 160.229 165.249 160.475 165.345 160.703C165.441 160.931 165.573 161.135 165.741 161.315C165.909 161.483 166.107 161.621 166.335 161.729C166.563 161.837 166.803 161.897 167.055 161.909H168.081H168.153C168.597 161.921 169.011 162.011 169.395 162.179C169.791 162.335 170.145 162.551 170.457 162.827Z" fill="white"/>
<path d="M442.235 95.5542L450.214 98.6955C451.743 99.2977 452.748 100.774 452.748 102.417V134.345C452.748 136.554 450.957 138.345 448.748 138.345H376.401C375.24 138.345 374.136 137.841 373.376 136.962L367.585 130.269C366.956 129.542 366.61 128.613 366.61 127.652V99.2761C366.61 97.067 368.401 95.2761 370.61 95.2761H440.769C441.271 95.2761 441.768 95.3705 442.235 95.5542Z" fill="#050505"/>
<rect x="373.236" y="99.7317" width="79.5122" height="38.6137" rx="3" fill="#282828"/>
<path d="M402.668 123.795C403.436 123.795 404.138 123.615 404.774 123.255C405.422 122.883 405.95 122.391 406.358 121.779L407.924 122.949C407.324 123.765 406.568 124.413 405.656 124.893C404.756 125.373 403.76 125.613 402.668 125.613C401.768 125.613 400.922 125.439 400.13 125.091C399.338 124.743 398.648 124.275 398.06 123.687C397.472 123.087 397.004 122.391 396.656 121.599C396.32 120.795 396.152 119.937 396.152 119.025C396.152 118.113 396.32 117.261 396.656 116.469C397.004 115.665 397.472 114.969 398.06 114.381C398.648 113.781 399.338 113.307 400.13 112.959C400.922 112.611 401.768 112.437 402.668 112.437C403.76 112.437 404.756 112.677 405.656 113.157C406.568 113.637 407.324 114.285 407.924 115.101L406.358 116.271C405.95 115.659 405.422 115.173 404.774 114.813C404.138 114.441 403.436 114.255 402.668 114.255C402.044 114.255 401.456 114.381 400.904 114.633C400.364 114.885 399.89 115.227 399.482 115.659C399.074 116.091 398.75 116.595 398.51 117.171C398.27 117.747 398.15 118.365 398.15 119.025C398.15 119.685 398.27 120.303 398.51 120.879C398.75 121.455 399.074 121.959 399.482 122.391C399.89 122.823 400.364 123.165 400.904 123.417C401.456 123.669 402.044 123.795 402.668 123.795ZM417.995 119.043C418.079 119.103 418.157 119.175 418.229 119.259C418.301 119.331 418.367 119.403 418.427 119.475C418.703 119.823 418.919 120.207 419.075 120.627C419.231 121.035 419.309 121.467 419.309 121.923C419.309 122.031 419.303 122.115 419.291 122.175C419.255 122.847 419.051 123.453 418.679 123.993C418.343 124.497 417.911 124.899 417.383 125.199C416.855 125.487 416.267 125.631 415.619 125.631H414.431C413.783 125.631 413.195 125.487 412.667 125.199C412.139 124.899 411.707 124.497 411.371 123.993C411.275 123.849 411.179 123.681 411.083 123.489L412.757 122.193C412.793 122.421 412.865 122.637 412.973 122.841C413.093 123.033 413.237 123.207 413.405 123.363C413.573 123.507 413.765 123.621 413.981 123.705C414.197 123.789 414.425 123.831 414.665 123.831H415.385C415.877 123.831 416.303 123.675 416.663 123.363C417.023 123.039 417.239 122.643 417.311 122.175C417.311 122.127 417.311 122.079 417.311 122.031C417.323 121.983 417.329 121.935 417.329 121.887C417.329 121.623 417.281 121.377 417.185 121.149C417.089 120.921 416.957 120.723 416.789 120.555C416.621 120.375 416.423 120.231 416.195 120.123C415.967 120.015 415.727 119.955 415.475 119.943H414.449H414.377C413.933 119.931 413.513 119.847 413.117 119.691C412.733 119.523 412.385 119.301 412.073 119.025C411.905 118.905 411.761 118.761 411.641 118.593C411.365 118.245 411.149 117.867 410.993 117.459C410.837 117.039 410.759 116.601 410.759 116.145V115.893C410.819 115.209 411.029 114.603 411.389 114.075C411.725 113.571 412.157 113.175 412.685 112.887C413.213 112.587 413.801 112.437 414.449 112.437H415.619C416.267 112.437 416.855 112.587 417.383 112.887C417.923 113.175 418.361 113.571 418.697 114.075C418.733 114.135 418.769 114.201 418.805 114.273C418.853 114.345 418.895 114.411 418.931 114.471L417.293 115.749C417.185 115.317 416.957 114.957 416.609 114.669C416.261 114.381 415.859 114.237 415.403 114.237H414.683C414.443 114.237 414.209 114.279 413.981 114.363C413.765 114.447 413.573 114.567 413.405 114.723C413.237 114.867 413.093 115.041 412.973 115.245C412.865 115.449 412.793 115.665 412.757 115.893C412.745 115.941 412.739 115.989 412.739 116.037C412.739 116.085 412.739 116.133 412.739 116.181C412.739 116.445 412.787 116.691 412.883 116.919C412.979 117.147 413.111 117.351 413.279 117.531C413.447 117.699 413.645 117.837 413.873 117.945C414.101 118.053 414.341 118.113 414.593 118.125H415.619H415.691C416.135 118.137 416.549 118.227 416.933 118.395C417.329 118.551 417.683 118.767 417.995 119.043ZM429.386 119.043C429.47 119.103 429.548 119.175 429.62 119.259C429.692 119.331 429.758 119.403 429.818 119.475C430.094 119.823 430.31 120.207 430.466 120.627C430.622 121.035 430.7 121.467 430.7 121.923C430.7 122.031 430.694 122.115 430.682 122.175C430.646 122.847 430.442 123.453 430.07 123.993C429.734 124.497 429.302 124.899 428.774 125.199C428.246 125.487 427.658 125.631 427.01 125.631H425.822C425.174 125.631 424.586 125.487 424.058 125.199C423.53 124.899 423.098 124.497 422.762 123.993C422.666 123.849 422.57 123.681 422.474 123.489L424.148 122.193C424.184 122.421 424.256 122.637 424.364 122.841C424.484 123.033 424.628 123.207 424.796 123.363C424.964 123.507 425.156 123.621 425.372 123.705C425.588 123.789 425.816 123.831 426.056 123.831H426.776C427.268 123.831 427.694 123.675 428.054 123.363C428.414 123.039 428.63 122.643 428.702 122.175C428.702 122.127 428.702 122.079 428.702 122.031C428.714 121.983 428.72 121.935 428.72 121.887C428.72 121.623 428.672 121.377 428.576 121.149C428.48 120.921 428.348 120.723 428.18 120.555C428.012 120.375 427.814 120.231 427.586 120.123C427.358 120.015 427.118 119.955 426.866 119.943H425.84H425.768C425.324 119.931 424.904 119.847 424.508 119.691C424.124 119.523 423.776 119.301 423.464 119.025C423.296 118.905 423.152 118.761 423.032 118.593C422.756 118.245 422.54 117.867 422.384 117.459C422.228 117.039 422.15 116.601 422.15 116.145V115.893C422.21 115.209 422.42 114.603 422.78 114.075C423.116 113.571 423.548 113.175 424.076 112.887C424.604 112.587 425.192 112.437 425.84 112.437H427.01C427.658 112.437 428.246 112.587 428.774 112.887C429.314 113.175 429.752 113.571 430.088 114.075C430.124 114.135 430.16 114.201 430.196 114.273C430.244 114.345 430.286 114.411 430.322 114.471L428.684 115.749C428.576 115.317 428.348 114.957 428 114.669C427.652 114.381 427.25 114.237 426.794 114.237H426.074C425.834 114.237 425.6 114.279 425.372 114.363C425.156 114.447 424.964 114.567 424.796 114.723C424.628 114.867 424.484 115.041 424.364 115.245C424.256 115.449 424.184 115.665 424.148 115.893C424.136 115.941 424.13 115.989 424.13 116.037C424.13 116.085 424.13 116.133 424.13 116.181C424.13 116.445 424.178 116.691 424.274 116.919C424.37 117.147 424.502 117.351 424.67 117.531C424.838 117.699 425.036 117.837 425.264 117.945C425.492 118.053 425.732 118.113 425.984 118.125H427.01H427.082C427.526 118.137 427.94 118.227 428.324 118.395C428.72 118.551 429.074 118.767 429.386 119.043Z" fill="white"/>
<defs>
<linearGradient id="paint0_linear" x1="-76" y1="145" x2="238" y2="176" gradientUnits="userSpaceOnUse">
<stop stop-color="#410FD3"/>
<stop offset="1" stop-color="#280887"/>
</linearGradient>
</defs>
</svg>
